<?xml version="1.0" encoding="utf-8"?>
<svg xmlns="http://www.w3.org/2000/svg"
	xmlns:xlink="http://www.w3.org/1999/xlink"
	width="45px" height="40px" viewBox="0 0 45 40">
<path fillRule="evenodd" d="M 28.53 40.02C 28.53 40.02 28.53 10.02 28.53 10.02 28.53 10.02 44.47 10.02 44.47 10.02 44.47 10.02 44.47 40.02 44.47 40.02 44.47 40.02 28.53 40.02 28.53 40.02ZM 43.53 10.95C 43.53 10.95 29.47 10.95 29.47 10.95 29.47 10.95 29.47 13.77 29.47 13.77 29.47 13.77 43.53 13.77 43.53 13.77 43.53 13.77 43.53 10.95 43.53 10.95ZM 43.53 14.7C 43.53 14.7 29.47 14.7 29.47 14.7 29.47 14.7 29.47 33.45 29.47 33.45 29.47 33.45 43.53 33.45 43.53 33.45 43.53 33.45 43.53 14.7 43.53 14.7ZM 43.53 34.39C 43.53 34.39 29.47 34.39 29.47 34.39 29.47 34.39 29.47 39.08 29.47 39.08 29.47 39.08 43.53 39.08 43.53 39.08 43.53 39.08 43.53 34.39 43.53 34.39ZM 36.5 35.33C 36.89 35.33 37.22 35.47 37.5 35.74 37.77 36.01 37.91 36.34 37.91 36.73 37.91 37.13 37.77 37.46 37.5 37.73 37.22 38 36.89 38.14 36.5 38.14 36.11 38.14 35.78 38 35.5 37.73 35.23 37.46 35.09 37.13 35.09 36.73 35.09 36.34 35.23 36.01 35.5 35.74 35.78 35.47 36.11 35.33 36.5 35.33ZM 36.5 37.2C 36.81 37.2 36.97 37.05 36.97 36.73 36.97 36.42 36.81 36.27 36.5 36.27 36.19 36.27 36.03 36.42 36.03 36.73 36.03 37.05 36.19 37.2 36.5 37.2ZM 38.37 12.83C 38.37 12.83 34.63 12.83 34.63 12.83 34.63 12.83 34.63 11.89 34.63 11.89 34.63 11.89 38.37 11.89 38.37 11.89 38.37 11.89 38.37 12.83 38.37 12.83ZM 0.75 0.02C 0.75 0.02 28.25 0.02 28.25 0.02 28.25 0.02 28.25 40.02 28.25 40.02 28.25 40.02 0.75 40.02 0.75 40.02 0.75 40.02 0.75 0.02 0.75 0.02ZM 2 38.77C 2 38.77 27 38.77 27 38.77 27 38.77 27 32.52 27 32.52 27 32.52 2 32.52 2 32.52 2 32.52 2 38.77 2 38.77ZM 2 31.27C 2 31.27 27 31.27 27 31.27 27 31.27 27 6.27 27 6.27 27 6.27 2 6.27 2 6.27 2 6.27 2 31.27 2 31.27ZM 2 5.02C 2 5.02 27 5.02 27 5.02 27 5.02 27 1.27 27 1.27 27 1.27 2 1.27 2 1.27 2 1.27 2 5.02 2 5.02ZM 12 2.52C 12 2.52 17 2.52 17 2.52 17 2.52 17 3.77 17 3.77 17 3.77 12 3.77 12 3.77 12 3.77 12 2.52 12 2.52ZM 14.5 37.52C 13.98 37.52 13.54 37.33 13.17 36.97 12.81 36.61 12.63 36.16 12.63 35.64 12.63 35.12 12.81 34.68 13.17 34.31 13.54 33.95 13.98 33.77 14.5 33.77 15.02 33.77 15.46 33.95 15.83 34.31 16.19 34.68 16.37 35.12 16.37 35.64 16.37 36.16 16.19 36.61 15.83 36.97 15.46 37.33 15.02 37.52 14.5 37.52ZM 14.5 35.02C 14.08 35.02 13.88 35.22 13.88 35.64 13.88 36.06 14.08 36.27 14.5 36.27 14.92 36.27 15.12 36.06 15.12 35.64 15.12 35.22 14.92 35.02 14.5 35.02Z" fill="rgb(253,184,95)"/></svg>