<?xml version="1.0" encoding="utf-8"?>
<svg xmlns="http://www.w3.org/2000/svg"
	xmlns:xlink="http://www.w3.org/1999/xlink"
	width="55px" height="43px" viewBox="0 0 55 43">
<path fillRule="evenodd" d="M 46.41 43C 46.41 43-0 43-0 43-0 43-0 6.89-0 6.89-0 6.89 46.41 6.89 46.41 6.89 46.41 6.89 46.41 43 46.41 43ZM 1.72 8.61C 1.72 8.61 1.72 31.5 1.72 31.5 1.72 31.5 12.89 20.22 12.89 20.22 12.89 20.22 25.14 34.19 25.14 34.19 25.14 34.19 33.62 29.03 33.62 29.03 33.62 29.03 44.69 38.59 44.69 38.59 44.69 38.59 44.69 8.61 44.69 8.61 44.69 8.61 1.72 8.61 1.72 8.61ZM 44.69 41.28C 44.69 41.28 44.69 40.85 44.69 40.85 44.69 40.85 33.41 31.18 33.41 31.18 33.41 31.18 24.71 36.34 24.71 36.34 24.71 36.34 12.89 22.8 12.89 22.8 12.89 22.8 1.72 33.86 1.72 33.86 1.72 33.86 1.72 41.28 1.72 41.28 1.72 41.28 44.69 41.28 44.69 41.28ZM 7.73 0.02C 7.73 0.02 55 0.02 55 0.02 55 0.02 55 36.12 55 36.12 55 36.12 47.27 36.12 47.27 36.12 47.27 36.12 47.27 34.4 47.27 34.4 47.27 34.4 53.28 34.4 53.28 34.4 53.28 34.4 53.28 1.74 53.28 1.74 53.28 1.74 9.45 1.74 9.45 1.74 9.45 1.74 9.45 6.03 9.45 6.03 9.45 6.03 7.73 6.03 7.73 6.03 7.73 6.03 7.73 0.02 7.73 0.02ZM 29.22 18.93C 29.22 17.5 29.72 16.28 30.72 15.28 31.72 14.27 32.94 13.77 34.37 13.77 35.81 13.77 37.02 14.27 38.03 15.28 39.03 16.28 39.53 17.5 39.53 18.93 39.53 20.36 39.03 21.58 38.03 22.58 37.02 23.59 35.81 24.09 34.37 24.09 32.94 24.09 31.72 23.59 30.72 22.58 29.72 21.58 29.22 20.36 29.22 18.93ZM 30.94 18.93C 30.94 19.93 31.26 20.75 31.9 21.4 32.55 22.04 33.37 22.37 34.37 22.37 35.38 22.37 36.2 22.04 36.85 21.4 37.49 20.75 37.81 19.93 37.81 18.93 37.81 17.93 37.49 17.1 36.85 16.46 36.2 15.81 35.38 15.49 34.37 15.49 33.37 15.49 32.55 15.81 31.9 16.46 31.26 17.1 30.94 17.93 30.94 18.93Z" fill="rgb(177,123,244)"/></svg>