<?xml version="1.0" encoding="utf-8"?>
<svg xmlns="http://www.w3.org/2000/svg"
	xmlns:xlink="http://www.w3.org/1999/xlink"
	width="55px" height="49px" viewBox="0 0 55 49">
<path fillRule="evenodd" d="M 36.09 7.21C 36.09 7.21 55 0.01 55 0.01 55 0.01 55 41.49 55 41.49 55 41.49 36.09 48.69 36.09 48.69 36.09 48.69 18.91 41.81 18.91 41.81 18.91 41.81-0 49.01-0 49.01-0 49.01-0 7.53-0 7.53-0 7.53 18.91 0.33 18.91 0.33 18.91 0.33 36.09 7.21 36.09 7.21ZM 19.77 40.3C 19.77 40.3 35.23 46.43 35.23 46.43 35.23 46.43 35.23 8.71 35.23 8.71 35.23 8.71 19.77 2.59 19.77 2.59 19.77 2.59 19.77 40.3 19.77 40.3ZM 1.72 46.43C 1.72 46.43 18.05 40.2 18.05 40.2 18.05 40.2 18.05 2.59 18.05 2.59 18.05 2.59 1.72 8.82 1.72 8.82 1.72 8.82 1.72 46.43 1.72 46.43ZM 53.28 2.59C 53.28 2.59 36.95 8.82 36.95 8.82 36.95 8.82 36.95 46.43 36.95 46.43 36.95 46.43 53.28 40.2 53.28 40.2 53.28 40.2 53.28 2.59 53.28 2.59Z" fill="rgb(55,197,148)"/></svg>