<?xml version="1.0" encoding="utf-8"?>
<svg xmlns="http://www.w3.org/2000/svg"
	xmlns:xlink="http://www.w3.org/1999/xlink"
	width="55px" height="40px" viewBox="0 0 55 40">
<path fillRule="evenodd" d="M 47.27 39.28C 47.27 39.28-0 39.28-0 39.28-0 39.28-0 8.33-0 8.33-0 8.33 47.27 8.33 47.27 8.33 47.27 8.33 47.27 39.28 47.27 39.28ZM 45.55 10.05C 45.55 10.05 1.72 10.05 1.72 10.05 1.72 10.05 1.72 37.56 1.72 37.56 1.72 37.56 45.55 37.56 45.55 37.56 45.55 37.56 45.55 10.05 45.55 10.05ZM 9.45 6.61C 9.45 6.61 7.73 6.61 7.73 6.61 7.73 6.61 7.73 0.6 7.73 0.6 7.73 0.6 55 0.6 55 0.6 55 0.6 55 31.54 55 31.54 55 31.54 48.98 31.54 48.98 31.54 48.98 31.54 48.98 29.82 48.98 29.82 48.98 29.82 53.28 29.82 53.28 29.82 53.28 29.82 53.28 2.31 53.28 2.31 53.28 2.31 9.45 2.31 9.45 2.31 9.45 2.31 9.45 6.61 9.45 6.61ZM 42.97 21.23C 42.97 21.23 35.23 21.23 35.23 21.23 35.23 21.23 35.23 12.63 35.23 12.63 35.23 12.63 42.97 12.63 42.97 12.63 42.97 12.63 42.97 21.23 42.97 21.23ZM 41.25 14.35C 41.25 14.35 36.95 14.35 36.95 14.35 36.95 14.35 36.95 19.51 36.95 19.51 36.95 19.51 41.25 19.51 41.25 19.51 41.25 19.51 41.25 14.35 41.25 14.35ZM 27.5 34.98C 27.5 34.98 29.22 34.98 29.22 34.98 29.22 34.98 29.22 12.63 29.22 12.63 29.22 12.63 27.5 12.63 27.5 12.63 27.5 12.63 27.5 34.98 27.5 34.98ZM 4.3 16.07C 4.3 16.07 24.92 16.07 24.92 16.07 24.92 16.07 24.92 14.35 24.92 14.35 24.92 14.35 4.3 14.35 4.3 14.35 4.3 14.35 4.3 16.07 4.3 16.07ZM 4.3 20.37C 4.3 20.37 22.34 20.37 22.34 20.37 22.34 20.37 22.34 18.65 22.34 18.65 22.34 18.65 4.3 18.65 4.3 18.65 4.3 18.65 4.3 20.37 4.3 20.37ZM 4.3 24.67C 4.3 24.67 23.2 24.67 23.2 24.67 23.2 24.67 23.2 22.95 23.2 22.95 23.2 22.95 4.3 22.95 4.3 22.95 4.3 22.95 4.3 24.67 4.3 24.67Z" fill="rgb(251,95,69)"/></svg>